<svg width="760" height="300" viewBox="0 0 760 300" fill="none" xmlns="http://www.w3.org/2000/svg">
<path d="M27.3315 182.898C22.8223 182.898 18.9572 181.368 15.7363 178.308C12.5155 175.088 10.905 171.062 10.905 166.23C10.905 161.56 12.5155 157.695 15.7363 154.635C18.9572 151.414 22.8223 149.804 27.3315 149.804C31.8407 149.804 35.6253 151.334 38.6851 154.393C41.745 157.453 43.2749 161.399 43.2749 166.23C43.2749 171.062 41.6644 175.088 38.4436 178.308C35.3837 181.368 31.6797 182.898 27.3315 182.898ZM150.908 31.9194C135.447 31.9194 123.772 35.4624 115.881 42.5483C108.15 49.4732 104.285 59.619 104.285 72.9856V92.3109H181.587V113.086H104.285V181.449H80.1288V72.7441C80.1288 53.2577 86.2485 38.0391 98.4878 27.0881C110.888 15.976 128.12 10.42 150.183 10.42C159.846 10.42 168.864 11.5473 177.238 13.8019C185.613 15.8955 192.86 19.0359 198.979 23.223L191.008 43.273C180.218 35.7039 166.851 31.9194 150.908 31.9194ZM243.89 74.9182C247.916 67.5101 253.875 61.8736 261.766 58.0085C269.657 54.1435 279.239 52.211 290.512 52.211V74.6766C289.224 74.5156 287.452 74.435 285.198 74.435C272.636 74.435 262.732 78.2196 255.485 85.7887C248.399 93.1967 244.856 103.826 244.856 117.675V181.449H221.666V53.4188H243.89V74.9182ZM440.389 53.4188V181.449H418.165V161.157C413.011 168.243 406.489 173.638 398.598 177.342C390.707 181.046 382.01 182.898 372.509 182.898C360.108 182.898 348.996 180.16 339.173 174.685C329.349 169.21 321.619 161.56 315.982 151.736C310.507 141.751 307.769 130.317 307.769 117.434C307.769 104.55 310.507 93.1967 315.982 83.373C321.619 73.5493 329.349 65.8997 339.173 60.4242C348.996 54.9487 360.108 52.211 372.509 52.211C381.688 52.211 390.143 53.9824 397.873 57.5254C405.603 60.9073 412.045 65.9802 417.199 72.7441V53.4188H440.389ZM374.441 162.607C382.494 162.607 389.821 160.755 396.424 157.051C403.027 153.186 408.18 147.871 411.884 141.107C415.588 134.182 417.44 126.291 417.44 117.434C417.44 108.576 415.588 100.766 411.884 94.0019C408.18 87.077 403.027 81.7625 396.424 78.0585C389.821 74.3545 382.494 72.5025 374.441 72.5025C366.228 72.5025 358.82 74.3545 352.217 78.0585C345.775 81.7625 340.622 87.077 336.757 94.0019C333.053 100.766 331.201 108.576 331.201 117.434C331.201 126.291 333.053 134.182 336.757 141.107C340.622 147.871 345.775 153.186 352.217 157.051C358.82 160.755 366.228 162.607 374.441 162.607ZM554.321 52.211C570.587 52.211 583.47 56.9618 592.972 66.4634C602.635 75.8039 607.466 89.5732 607.466 107.771V181.449H584.275V110.428C584.275 98.028 581.296 88.6874 575.338 82.4067C569.379 76.126 560.844 72.9856 549.732 72.9856C537.17 72.9856 527.266 76.6897 520.019 84.0977C512.772 91.3447 509.148 101.813 509.148 115.501V181.449H485.958V53.4188H508.182V72.7441C512.852 66.1413 519.133 61.0684 527.024 57.5254C535.076 53.9824 544.175 52.211 554.321 52.211ZM748.218 162.365V181.449H640.962V166.472L673.574 125.889H650.383V107.53H688.551L716.573 72.5025H642.412V53.4188H746.285V68.6375L714.64 107.771H738.555V126.13H699.905L670.675 162.365H748.218Z" fill="#FAFAFA"/>
<path d="M96.2704 240.381C91.5624 240.381 88.0424 241.481 85.7104 243.681C83.3784 245.837 82.2124 248.939 82.2124 252.987V260.379H105.114V263.415H82.2124V283.809H78.8464V252.855C78.8464 248.015 80.3204 244.209 83.2684 241.437C86.2604 238.665 90.5724 237.279 96.2044 237.279C101.792 237.279 106.28 238.555 109.668 241.107L108.282 243.879C105.202 241.547 101.198 240.381 96.2704 240.381ZM146.717 249.357V283.809H143.549V276.417C142.405 278.837 140.711 280.729 138.467 282.093C136.223 283.413 133.583 284.073 130.547 284.073C126.059 284.073 122.539 282.819 119.987 280.311C117.435 277.803 116.159 274.195 116.159 269.487V249.357H119.459V269.223C119.459 273.095 120.449 276.043 122.429 278.067C124.409 280.091 127.203 281.103 130.811 281.103C134.683 281.103 137.741 279.893 139.985 277.473C142.273 275.053 143.417 271.797 143.417 267.705V249.357H146.717ZM170.473 284.073C167.569 284.073 165.347 283.259 163.807 281.631C162.267 279.959 161.497 277.671 161.497 274.767V234.837H164.797V274.371C164.797 276.615 165.303 278.331 166.315 279.519C167.327 280.663 168.845 281.235 170.869 281.235C172.013 281.235 173.113 281.015 174.169 280.575L174.433 283.347C173.201 283.831 171.881 284.073 170.473 284.073ZM190.923 284.073C188.019 284.073 185.797 283.259 184.257 281.631C182.717 279.959 181.947 277.671 181.947 274.767V234.837H185.247V274.371C185.247 276.615 185.753 278.331 186.765 279.519C187.777 280.663 189.295 281.235 191.319 281.235C192.463 281.235 193.563 281.015 194.619 280.575L194.883 283.347C193.651 283.831 192.331 284.073 190.923 284.073ZM199.493 264.603H216.455V267.573H199.493V264.603ZM237.038 284.073C234.266 284.073 231.626 283.655 229.118 282.819C226.61 281.983 224.652 280.927 223.244 279.651L224.762 277.011C226.17 278.199 227.974 279.189 230.174 279.981C232.418 280.773 234.75 281.169 237.17 281.169C240.646 281.169 243.198 280.597 244.826 279.453C246.498 278.309 247.334 276.725 247.334 274.701C247.334 273.249 246.872 272.105 245.948 271.269C245.068 270.433 243.968 269.817 242.648 269.421C241.328 269.025 239.502 268.607 237.17 268.167C234.442 267.683 232.242 267.155 230.57 266.583C228.898 266.011 227.468 265.087 226.28 263.811C225.092 262.535 224.498 260.775 224.498 258.531C224.498 255.803 225.62 253.559 227.864 251.799C230.152 249.995 233.386 249.093 237.566 249.093C239.766 249.093 241.944 249.401 244.1 250.017C246.256 250.633 248.016 251.447 249.38 252.459L247.862 255.099C246.454 254.087 244.848 253.317 243.044 252.789C241.24 252.261 239.392 251.997 237.5 251.997C234.288 251.997 231.868 252.591 230.24 253.779C228.612 254.967 227.798 256.529 227.798 258.465C227.798 260.005 228.26 261.215 229.184 262.095C230.108 262.931 231.23 263.569 232.55 264.009C233.914 264.405 235.806 264.845 238.226 265.329C240.91 265.813 243.066 266.341 244.694 266.913C246.366 267.441 247.774 268.321 248.918 269.553C250.062 270.785 250.634 272.479 250.634 274.635C250.634 277.495 249.446 279.783 247.07 281.499C244.694 283.215 241.35 284.073 237.038 284.073ZM276.674 281.631C275.838 282.423 274.782 283.039 273.506 283.479C272.274 283.875 270.976 284.073 269.612 284.073C266.62 284.073 264.31 283.259 262.682 281.631C261.054 279.959 260.24 277.649 260.24 274.701V241.833H263.54V249.357H274.496V252.195H263.54V274.371C263.54 276.615 264.068 278.331 265.124 279.519C266.224 280.663 267.83 281.235 269.942 281.235C272.098 281.235 273.88 280.597 275.288 279.321L276.674 281.631ZM316.028 249.357V283.809H312.794V275.691C311.43 278.375 309.516 280.443 307.052 281.895C304.588 283.347 301.794 284.073 298.67 284.073C295.458 284.073 292.554 283.325 289.958 281.829C287.362 280.333 285.316 278.265 283.82 275.625C282.368 272.985 281.642 269.971 281.642 266.583C281.642 263.195 282.368 260.181 283.82 257.541C285.316 254.857 287.362 252.789 289.958 251.337C292.554 249.841 295.458 249.093 298.67 249.093C301.75 249.093 304.5 249.819 306.92 251.271C309.384 252.723 311.32 254.747 312.728 257.343V249.357H316.028ZM298.868 281.103C301.508 281.103 303.862 280.487 305.93 279.255C308.042 278.023 309.692 276.307 310.88 274.107C312.112 271.907 312.728 269.399 312.728 266.583C312.728 263.767 312.112 261.259 310.88 259.059C309.692 256.859 308.042 255.143 305.93 253.911C303.862 252.679 301.508 252.063 298.868 252.063C296.228 252.063 293.852 252.679 291.74 253.911C289.672 255.143 288.022 256.859 286.79 259.059C285.602 261.259 285.008 263.767 285.008 266.583C285.008 269.399 285.602 271.907 286.79 274.107C288.022 276.307 289.672 278.023 291.74 279.255C293.852 280.487 296.228 281.103 298.868 281.103ZM344.395 284.073C341.051 284.073 338.059 283.325 335.419 281.829C332.779 280.333 330.711 278.265 329.215 275.625C327.719 272.941 326.971 269.927 326.971 266.583C326.971 263.195 327.719 260.181 329.215 257.541C330.711 254.857 332.779 252.789 335.419 251.337C338.059 249.841 341.051 249.093 344.395 249.093C347.167 249.093 349.675 249.643 351.919 250.743C354.207 251.799 356.055 253.361 357.463 255.429L355.021 257.211C353.789 255.495 352.249 254.219 350.401 253.383C348.597 252.503 346.595 252.063 344.395 252.063C341.711 252.063 339.291 252.679 337.135 253.911C335.023 255.099 333.351 256.793 332.119 258.993C330.931 261.193 330.337 263.723 330.337 266.583C330.337 269.443 330.931 271.973 332.119 274.173C333.351 276.373 335.023 278.089 337.135 279.321C339.291 280.509 341.711 281.103 344.395 281.103C346.595 281.103 348.597 280.685 350.401 279.849C352.249 278.969 353.789 277.671 355.021 275.955L357.463 277.737C356.055 279.805 354.207 281.389 351.919 282.489C349.675 283.545 347.167 284.073 344.395 284.073ZM379.831 265.395L370.855 273.579V283.809H367.555V234.837H370.855V269.487L392.899 249.357H397.123L382.273 263.283L398.575 283.809H394.483L379.831 265.395ZM455.515 234.837V283.809H452.281V275.691C450.917 278.375 449.003 280.443 446.539 281.895C444.075 283.347 441.281 284.073 438.157 284.073C434.945 284.073 432.041 283.325 429.445 281.829C426.849 280.333 424.803 278.265 423.307 275.625C421.855 272.985 421.129 269.971 421.129 266.583C421.129 263.195 421.855 260.181 423.307 257.541C424.803 254.857 426.849 252.789 429.445 251.337C432.041 249.841 434.945 249.093 438.157 249.093C441.237 249.093 443.987 249.819 446.407 251.271C448.871 252.723 450.807 254.747 452.215 257.343V234.837H455.515ZM438.355 281.103C440.995 281.103 443.349 280.487 445.417 279.255C447.529 278.023 449.179 276.307 450.367 274.107C451.599 271.907 452.215 269.399 452.215 266.583C452.215 263.767 451.599 261.259 450.367 259.059C449.179 256.859 447.529 255.143 445.417 253.911C443.349 252.679 440.995 252.063 438.355 252.063C435.715 252.063 433.339 252.679 431.227 253.911C429.159 255.143 427.509 256.859 426.277 259.059C425.089 261.259 424.495 263.767 424.495 266.583C424.495 269.399 425.089 271.907 426.277 274.107C427.509 276.307 429.159 278.023 431.227 279.255C433.339 280.487 435.715 281.103 438.355 281.103ZM484.344 281.103C486.588 281.103 488.656 280.707 490.548 279.915C492.484 279.079 494.09 277.869 495.366 276.285L497.28 278.463C495.784 280.311 493.914 281.719 491.67 282.687C489.426 283.611 486.962 284.073 484.278 284.073C480.846 284.073 477.766 283.325 475.038 281.829C472.354 280.333 470.242 278.265 468.702 275.625C467.206 272.985 466.458 269.971 466.458 266.583C466.458 263.195 467.162 260.181 468.57 257.541C470.022 254.901 472.024 252.833 474.576 251.337C477.128 249.841 480.01 249.093 483.222 249.093C486.214 249.093 488.898 249.797 491.274 251.205C493.694 252.569 495.608 254.483 497.016 256.947C498.468 259.367 499.26 262.095 499.392 265.131L470.286 270.807C471.122 273.975 472.794 276.483 475.302 278.331C477.81 280.179 480.824 281.103 484.344 281.103ZM483.222 251.997C480.626 251.997 478.294 252.613 476.226 253.845C474.158 255.033 472.552 256.727 471.408 258.927C470.264 261.083 469.692 263.547 469.692 266.319C469.692 266.803 469.736 267.485 469.824 268.365L496.092 263.217C495.784 261.149 495.058 259.257 493.914 257.541C492.77 255.825 491.274 254.483 489.426 253.515C487.578 252.503 485.51 251.997 483.222 251.997ZM537.402 249.357L521.826 283.809H518.46L502.95 249.357H506.448L520.176 280.179L534.036 249.357H537.402ZM558.566 281.103C560.81 281.103 562.878 280.707 564.77 279.915C566.706 279.079 568.312 277.869 569.588 276.285L571.502 278.463C570.006 280.311 568.136 281.719 565.892 282.687C563.648 283.611 561.184 284.073 558.5 284.073C555.068 284.073 551.988 283.325 549.26 281.829C546.576 280.333 544.464 278.265 542.924 275.625C541.428 272.985 540.68 269.971 540.68 266.583C540.68 263.195 541.384 260.181 542.792 257.541C544.244 254.901 546.246 252.833 548.798 251.337C551.35 249.841 554.232 249.093 557.444 249.093C560.436 249.093 563.12 249.797 565.496 251.205C567.916 252.569 569.83 254.483 571.238 256.947C572.69 259.367 573.482 262.095 573.614 265.131L544.508 270.807C545.344 273.975 547.016 276.483 549.524 278.331C552.032 280.179 555.046 281.103 558.566 281.103ZM557.444 251.997C554.848 251.997 552.516 252.613 550.448 253.845C548.38 255.033 546.774 256.727 545.63 258.927C544.486 261.083 543.914 263.547 543.914 266.319C543.914 266.803 543.958 267.485 544.046 268.365L570.314 263.217C570.006 261.149 569.28 259.257 568.136 257.541C566.992 255.825 565.496 254.483 563.648 253.515C561.8 252.503 559.732 251.997 557.444 251.997ZM593.591 284.073C590.687 284.073 588.465 283.259 586.925 281.631C585.385 279.959 584.615 277.671 584.615 274.767V234.837H587.915V274.371C587.915 276.615 588.421 278.331 589.433 279.519C590.445 280.663 591.963 281.235 593.987 281.235C595.131 281.235 596.231 281.015 597.287 280.575L597.551 283.347C596.319 283.831 594.999 284.073 593.591 284.073ZM617.885 284.073C614.629 284.073 611.681 283.325 609.041 281.829C606.445 280.333 604.399 278.265 602.903 275.625C601.407 272.941 600.659 269.927 600.659 266.583C600.659 263.239 601.407 260.247 602.903 257.607C604.399 254.923 606.445 252.833 609.041 251.337C611.681 249.841 614.629 249.093 617.885 249.093C621.141 249.093 624.067 249.841 626.663 251.337C629.303 252.833 631.371 254.923 632.867 257.607C634.363 260.247 635.111 263.239 635.111 266.583C635.111 269.927 634.363 272.941 632.867 275.625C631.371 278.265 629.303 280.333 626.663 281.829C624.067 283.325 621.141 284.073 617.885 284.073ZM617.885 281.103C620.525 281.103 622.879 280.487 624.947 279.255C627.059 278.023 628.709 276.307 629.897 274.107C631.129 271.907 631.745 269.399 631.745 266.583C631.745 263.767 631.129 261.259 629.897 259.059C628.709 256.859 627.059 255.143 624.947 253.911C622.879 252.679 620.525 252.063 617.885 252.063C615.245 252.063 612.869 252.679 610.757 253.911C608.689 255.143 607.039 256.859 605.807 259.059C604.619 261.259 604.025 263.767 604.025 266.583C604.025 269.399 604.619 271.907 605.807 274.107C607.039 276.307 608.689 278.023 610.757 279.255C612.869 280.487 615.245 281.103 617.885 281.103ZM663.433 249.093C666.645 249.093 669.549 249.841 672.145 251.337C674.741 252.833 676.765 254.901 678.217 257.541C679.713 260.181 680.461 263.195 680.461 266.583C680.461 269.971 679.713 273.007 678.217 275.691C676.765 278.331 674.741 280.399 672.145 281.895C669.549 283.347 666.645 284.073 663.433 284.073C660.397 284.073 657.647 283.369 655.183 281.961C652.719 280.509 650.805 278.507 649.441 275.955V296.613H646.141V249.357H649.309V257.475C650.673 254.835 652.587 252.789 655.051 251.337C657.559 249.841 660.353 249.093 663.433 249.093ZM663.235 281.103C665.875 281.103 668.251 280.487 670.363 279.255C672.475 278.023 674.125 276.307 675.313 274.107C676.545 271.907 677.161 269.399 677.161 266.583C677.161 263.767 676.545 261.259 675.313 259.059C674.125 256.859 672.475 255.143 670.363 253.911C668.251 252.679 665.875 252.063 663.235 252.063C660.595 252.063 658.219 252.679 656.107 253.911C654.039 255.143 652.389 256.859 651.157 259.059C649.969 261.259 649.375 263.767 649.375 266.583C649.375 269.399 649.969 271.907 651.157 274.107C652.389 276.307 654.039 278.023 656.107 279.255C658.219 280.487 660.595 281.103 663.235 281.103ZM705.594 281.103C707.838 281.103 709.906 280.707 711.798 279.915C713.734 279.079 715.34 277.869 716.616 276.285L718.53 278.463C717.034 280.311 715.164 281.719 712.92 282.687C710.676 283.611 708.212 284.073 705.528 284.073C702.096 284.073 699.016 283.325 696.288 281.829C693.604 280.333 691.492 278.265 689.952 275.625C688.456 272.985 687.708 269.971 687.708 266.583C687.708 263.195 688.412 260.181 689.82 257.541C691.272 254.901 693.274 252.833 695.826 251.337C698.378 249.841 701.26 249.093 704.472 249.093C707.464 249.093 710.148 249.797 712.524 251.205C714.944 252.569 716.858 254.483 718.266 256.947C719.718 259.367 720.51 262.095 720.642 265.131L691.536 270.807C692.372 273.975 694.044 276.483 696.552 278.331C699.06 280.179 702.074 281.103 705.594 281.103ZM704.472 251.997C701.876 251.997 699.544 252.613 697.476 253.845C695.408 255.033 693.802 256.727 692.658 258.927C691.514 261.083 690.942 263.547 690.942 266.319C690.942 266.803 690.986 267.485 691.074 268.365L717.342 263.217C717.034 261.149 716.308 259.257 715.164 257.541C714.02 255.825 712.524 254.483 710.676 253.515C708.828 252.503 706.76 251.997 704.472 251.997ZM734.811 256.881C735.867 254.373 737.517 252.459 739.761 251.139C742.005 249.775 744.733 249.093 747.945 249.093V252.327L747.153 252.261C743.325 252.261 740.333 253.471 738.177 255.891C736.021 258.267 734.943 261.589 734.943 265.857V283.809H731.643V249.357H734.811V256.881Z" fill="#FAFAFA"/>
</svg>
