<svg width="760" height="295" viewBox="0 0 760 295" fill="none" xmlns="http://www.w3.org/2000/svg">
<path d="M28.332 235.898C23.8228 235.898 19.9577 234.368 16.7368 231.308C13.5159 228.088 11.9055 224.062 11.9055 219.23C11.9055 214.56 13.5159 210.695 16.7368 207.635C19.9577 204.414 23.8228 202.804 28.332 202.804C32.8412 202.804 36.6258 204.334 39.6856 207.393C42.7454 210.453 44.2754 214.399 44.2754 219.23C44.2754 224.062 42.6649 228.088 39.444 231.308C36.3842 234.368 32.6802 235.898 28.332 235.898ZM151.908 84.9194C136.448 84.9194 124.772 88.4624 116.881 95.5483C109.151 102.473 105.286 112.619 105.286 125.986V145.311H182.587V166.086H105.286V234.449H81.1293V125.744C81.1293 106.258 87.249 91.0391 99.4883 80.0881C111.889 68.976 129.12 63.42 151.183 63.42C160.846 63.42 169.865 64.5473 178.239 66.8019C186.613 68.8955 193.86 72.0359 199.98 76.223L192.008 96.273C181.218 88.7039 167.852 84.9194 151.908 84.9194ZM244.89 127.918C248.916 120.51 254.875 114.874 262.766 111.009C270.657 107.143 280.24 105.211 291.513 105.211V127.677C290.224 127.516 288.453 127.435 286.198 127.435C273.637 127.435 263.733 131.22 256.486 138.789C249.4 146.197 245.857 156.826 245.857 170.675V234.449H222.666V106.419H244.89V127.918ZM441.389 106.419V234.449H419.165V214.157C414.012 221.243 407.49 226.638 399.598 230.342C391.707 234.046 383.011 235.898 373.509 235.898C361.109 235.898 349.997 233.16 340.173 227.685C330.349 222.21 322.619 214.56 316.983 204.736C311.507 194.751 308.77 183.317 308.77 170.434C308.77 157.55 311.507 146.197 316.983 136.373C322.619 126.549 330.349 118.9 340.173 113.424C349.997 107.949 361.109 105.211 373.509 105.211C382.689 105.211 391.144 106.982 398.874 110.525C406.604 113.907 413.046 118.98 418.199 125.744V106.419H441.389ZM375.442 215.607C383.494 215.607 390.822 213.755 397.424 210.051C404.027 206.186 409.181 200.871 412.885 194.107C416.589 187.182 418.441 179.291 418.441 170.434C418.441 161.576 416.589 153.766 412.885 147.002C409.181 140.077 404.027 134.763 397.424 131.059C390.822 127.355 383.494 125.503 375.442 125.503C367.229 125.503 359.821 127.355 353.218 131.059C346.776 134.763 341.623 140.077 337.757 147.002C334.053 153.766 332.201 161.576 332.201 170.434C332.201 179.291 334.053 187.182 337.757 194.107C341.623 200.871 346.776 206.186 353.218 210.051C359.821 213.755 367.229 215.607 375.442 215.607ZM555.322 105.211C571.587 105.211 584.471 109.962 593.972 119.463C603.635 128.804 608.466 142.573 608.466 160.771V234.449H585.276V163.428C585.276 151.028 582.297 141.687 576.338 135.407C570.379 129.126 561.844 125.986 550.732 125.986C538.171 125.986 528.266 129.69 521.019 137.098C513.772 144.345 510.149 154.813 510.149 168.501V234.449H486.959V106.419H509.183V125.744C513.853 119.141 520.134 114.068 528.025 110.525C536.077 106.982 545.176 105.211 555.322 105.211ZM749.218 215.365V234.449H641.963V219.472L674.574 178.889H651.384V160.53H689.551L717.573 125.503H643.412V106.419H747.286V121.637L715.641 160.771H739.556V179.13H700.905L671.676 215.365H749.218Z" fill="#FF6C6C"/>
</svg>
